<?xml version="1.0" standalone="no"?>
<!DOCTYPE svg PUBLIC "-//W3C//DTD SVG 20010904//EN"
 "http://www.w3.org/TR/2001/REC-SVG-20010904/DTD/svg10.dtd">
<svg version="1.0" xmlns="http://www.w3.org/2000/svg"
 width="1076.000000pt" height="1280.000000pt" viewBox="0 0 1076.000000 1280.000000"
 preserveAspectRatio="xMidYMid meet">
<g transform="translate(0.000000,1280.000000) scale(0.100000,-0.100000)"
fill="#000000" stroke="none">
<path d="M4160 8540 c0 -3128 -3 -4260 -11 -4260 -6 0 -514 499 -1128 1108
-2203 2187 -3002 2977 -3011 2980 -7 3 -10 -517 -10 -1485 l1 -1488 2690
-2693 2689 -2694 2690 2684 2690 2683 0 1493 c0 834 -4 1492 -9 1490 -4 -1
-946 -933 -2091 -2070 -1146 -1138 -2087 -2068 -2092 -2068 -4 0 -8 1925 -8
4278 0 3314 -3 4281 -12 4290 -9 9 -289 12 -1200 12 l-1188 0 0 -4260z"/>
</g>
</svg>
